# MagicaVoxel @ Ephtracy

# group
o 

# material
mtllib franken.mtl
usemtl palette

# normals
vn -1 0 0
vn 1 0 0
vn 0 0 1
vn 0 0 -1
vn 0 -1 0
vn 0 1 0

# texcoords
vt 0.0566406 0.5
vt 0.431641 0.5
vt 0.560547 0.5
vt 0.716797 0.5
vt 0.740234 0.5
vt 0.916016 0.5
vt 0.923828 0.5
vt 0.935547 0.5
vt 0.955078 0.5
vt 0.994141 0.5

# verts
v 0 3.1 -0.7
v 0 3.1 -0.9
v 0 3.2 -0.7
v 0 3.2 -0.9
v 0.5 3.5 -0.7
v 0.5 3.5 -0.8
v 0.5 3.8 -0.7
v 0.5 3.8 -0.8
v 0.7 2 -0.6
v 0.7 2 -0.9
v 0.7 2.1 -0.6
v 0.7 2.1 -0.7
v 0.7 2.1 -0.9
v 0.7 2.2 -0.7
v 0.7 2.2 -0.9
v 0.7 2.5 -0.6
v 0.7 2.5 -0.7
v 0.7 2.5 -0.9
v 0.7 2.5 -1
v 0.7 2.7 -0.6
v 0.7 2.7 -1
v 0.7 3.1 -0.7
v 0.7 3.1 -0.9
v 0.7 3.2 -0.6
v 0.7 3.2 -0.7
v 0.7 3.2 -0.9
v 0.7 3.2 -1
v 0.7 3.3 -0.6
v 0.7 3.3 -1
v 0.7 3.6 -0.7
v 0.7 3.6 -0.8
v 0.7 3.7 -0.7
v 0.7 3.7 -0.8
v 0.7 3.8 -0.6
v 0.7 3.8 -1
v 0.7 4 -0.6
v 0.7 4 -1
v 0.9 3.2 -0.7
v 0.9 3.2 -0.9
v 0.9 3.3 -0.7
v 0.9 3.3 -0.9
v 1.1 2 -0.6
v 1.1 2 -0.9
v 1.1 2.1 -0.6
v 1.1 2.1 -0.7
v 1.1 2.1 -0.9
v 1.1 2.2 -0.7
v 1.1 2.2 -0.9
v 1.1 2.5 -0.6
v 1.1 2.5 -0.7
v 1.1 2.5 -0.9
v 1.1 2.5 -1
v 1.1 2.7 -0.6
v 1.1 2.7 -0.9
v 1.1 2.7 -1
v 1.4 3.5 -0.7
v 1.4 3.5 -0.8
v 1.4 3.6 -0.7
v 1.4 3.6 -0.8
v 1.4 3.7 -0.7
v 1.4 3.7 -0.8
v 1.4 3.8 -0.7
v 1.4 3.8 -0.8
v 0.6 3.5 -0.7
v 0.6 3.5 -0.8
v 0.6 3.6 -0.7
v 0.6 3.6 -0.8
v 0.6 3.7 -0.7
v 0.6 3.7 -0.8
v 0.6 3.8 -0.7
v 0.6 3.8 -0.8
v 0.9 2 -0.6
v 0.9 2 -0.9
v 0.9 2.1 -0.6
v 0.9 2.1 -0.7
v 0.9 2.1 -0.9
v 0.9 2.2 -0.7
v 0.9 2.2 -0.9
v 0.9 2.5 -0.6
v 0.9 2.5 -0.7
v 0.9 2.5 -0.9
v 0.9 2.5 -1
v 0.9 2.7 -0.6
v 0.9 2.7 -0.9
v 0.9 2.7 -1
v 1.1 3.2 -0.7
v 1.1 3.2 -0.9
v 1.1 3.3 -0.7
v 1.1 3.3 -0.9
v 1.2 3.9 -0.6
v 1.2 3.9 -1
v 1.2 4 -0.6
v 1.2 4 -1
v 1.3 2 -0.6
v 1.3 2 -0.9
v 1.3 2.1 -0.6
v 1.3 2.1 -0.7
v 1.3 2.1 -0.9
v 1.3 2.2 -0.7
v 1.3 2.2 -0.9
v 1.3 2.5 -0.6
v 1.3 2.5 -0.7
v 1.3 2.5 -0.9
v 1.3 2.5 -1
v 1.3 2.7 -0.6
v 1.3 2.7 -1
v 1.3 3.1 -0.7
v 1.3 3.1 -0.9
v 1.3 3.2 -0.6
v 1.3 3.2 -0.7
v 1.3 3.2 -0.9
v 1.3 3.2 -1
v 1.3 3.3 -0.6
v 1.3 3.3 -1
v 1.3 3.6 -0.7
v 1.3 3.6 -0.8
v 1.3 3.7 -0.7
v 1.3 3.7 -0.8
v 1.3 3.8 -0.6
v 1.3 3.8 -1
v 1.3 3.9 -0.6
v 1.3 3.9 -1
v 1.5 3.5 -0.7
v 1.5 3.5 -0.8
v 1.5 3.8 -0.7
v 1.5 3.8 -0.8
v 2 3.1 -0.7
v 2 3.1 -0.9
v 2 3.2 -0.7
v 2 3.2 -0.9
v 0.7 2 -0.6
v 0.7 2.1 -0.6
v 0.7 2.5 -0.6
v 0.7 2.7 -0.6
v 0.7 3.2 -0.6
v 0.7 3.3 -0.6
v 0.7 3.8 -0.6
v 0.7 4 -0.6
v 0.8 3.6 -0.6
v 0.8 3.8 -0.6
v 0.9 2 -0.6
v 0.9 2.1 -0.6
v 0.9 2.5 -0.6
v 0.9 2.7 -0.6
v 0.9 2.8 -0.6
v 0.9 2.9 -0.6
v 0.9 3 -0.6
v 0.9 3.1 -0.6
v 0.9 3.2 -0.6
v 0.9 3.4 -0.6
v 0.9 3.5 -0.6
v 0.9 3.6 -0.6
v 0.9 3.8 -0.6
v 1.1 2 -0.6
v 1.1 2.1 -0.6
v 1.1 2.5 -0.6
v 1.1 2.7 -0.6
v 1.1 2.8 -0.6
v 1.1 2.9 -0.6
v 1.1 3 -0.6
v 1.1 3.1 -0.6
v 1.1 3.2 -0.6
v 1.1 3.4 -0.6
v 1.1 3.5 -0.6
v 1.1 3.6 -0.6
v 1.1 3.8 -0.6
v 1.2 3.6 -0.6
v 1.2 3.8 -0.6
v 1.2 3.9 -0.6
v 1.2 4 -0.6
v 1.3 2 -0.6
v 1.3 2.1 -0.6
v 1.3 2.5 -0.6
v 1.3 2.7 -0.6
v 1.3 3.2 -0.6
v 1.3 3.3 -0.6
v 1.3 3.8 -0.6
v 1.3 3.9 -0.6
v 0 3.1 -0.7
v 0 3.2 -0.7
v 0.2 3.1 -0.7
v 0.2 3.2 -0.7
v 0.5 3.5 -0.7
v 0.5 3.8 -0.7
v 0.6 3.5 -0.7
v 0.6 3.6 -0.7
v 0.6 3.7 -0.7
v 0.6 3.8 -0.7
v 0.7 2.1 -0.7
v 0.7 2.2 -0.7
v 0.7 2.5 -0.7
v 0.7 3.1 -0.7
v 0.7 3.2 -0.7
v 0.7 3.6 -0.7
v 0.7 3.7 -0.7
v 0.9 2.1 -0.7
v 0.9 2.2 -0.7
v 0.9 2.5 -0.7
v 0.9 3.2 -0.7
v 0.9 3.3 -0.7
v 1.1 2.1 -0.7
v 1.1 2.2 -0.7
v 1.1 2.5 -0.7
v 1.1 3.2 -0.7
v 1.1 3.3 -0.7
v 1.3 2.1 -0.7
v 1.3 2.2 -0.7
v 1.3 2.5 -0.7
v 1.3 3.1 -0.7
v 1.3 3.2 -0.7
v 1.3 3.6 -0.7
v 1.3 3.7 -0.7
v 1.4 3.5 -0.7
v 1.4 3.6 -0.7
v 1.4 3.7 -0.7
v 1.4 3.8 -0.7
v 1.5 3.5 -0.7
v 1.5 3.8 -0.7
v 1.8 3.1 -0.7
v 1.8 3.2 -0.7
v 2 3.1 -0.7
v 2 3.2 -0.7
v 0.5 3.5 -0.8
v 0.5 3.8 -0.8
v 0.6 3.5 -0.8
v 0.6 3.6 -0.8
v 0.6 3.7 -0.8
v 0.6 3.8 -0.8
v 0.7 3.6 -0.8
v 0.7 3.7 -0.8
v 1.3 3.6 -0.8
v 1.3 3.7 -0.8
v 1.4 3.5 -0.8
v 1.4 3.6 -0.8
v 1.4 3.7 -0.8
v 1.4 3.8 -0.8
v 1.5 3.5 -0.8
v 1.5 3.8 -0.8
v 0 3.1 -0.9
v 0 3.2 -0.9
v 0.2 3.1 -0.9
v 0.2 3.2 -0.9
v 0.7 2 -0.9
v 0.7 2.1 -0.9
v 0.7 2.2 -0.9
v 0.7 2.5 -0.9
v 0.7 3.1 -0.9
v 0.7 3.2 -0.9
v 0.9 2 -0.9
v 0.9 2.1 -0.9
v 0.9 2.2 -0.9
v 0.9 2.5 -0.9
v 0.9 3.2 -0.9
v 0.9 3.3 -0.9
v 1.1 2 -0.9
v 1.1 2.1 -0.9
v 1.1 2.2 -0.9
v 1.1 2.5 -0.9
v 1.1 3.2 -0.9
v 1.1 3.3 -0.9
v 1.3 2 -0.9
v 1.3 2.1 -0.9
v 1.3 2.2 -0.9
v 1.3 2.5 -0.9
v 1.3 3.1 -0.9
v 1.3 3.2 -0.9
v 1.8 3.1 -0.9
v 1.8 3.2 -0.9
v 2 3.1 -0.9
v 2 3.2 -0.9
v 0.7 2.5 -1
v 0.7 2.7 -1
v 0.7 3.2 -1
v 0.7 3.3 -1
v 0.7 3.8 -1
v 0.7 4 -1
v 0.9 2.5 -1
v 0.9 2.7 -1
v 1.1 2.5 -1
v 1.1 2.7 -1
v 1.2 3.9 -1
v 1.2 4 -1
v 1.3 2.5 -1
v 1.3 2.7 -1
v 1.3 3.2 -1
v 1.3 3.3 -1
v 1.3 3.8 -1
v 1.3 3.9 -1
v 0.7 2 -0.6
v 0.9 2 -0.6
v 1.1 2 -0.6
v 1.3 2 -0.6
v 0.7 2 -0.9
v 0.9 2 -0.9
v 1.1 2 -0.9
v 1.3 2 -0.9
v 0.7 2.5 -0.6
v 0.9 2.5 -0.6
v 1.1 2.5 -0.6
v 1.3 2.5 -0.6
v 0.7 2.5 -0.7
v 0.9 2.5 -0.7
v 1.1 2.5 -0.7
v 1.3 2.5 -0.7
v 0.7 2.5 -0.9
v 0.9 2.5 -0.9
v 1.1 2.5 -0.9
v 1.3 2.5 -0.9
v 0.7 2.5 -1
v 0.9 2.5 -1
v 1.1 2.5 -1
v 1.3 2.5 -1
v 0.9 2.7 -0.6
v 1.1 2.7 -0.6
v 0.9 2.7 -0.9
v 1.1 2.7 -0.9
v 0.9 2.7 -1
v 1.1 2.7 -1
v 0 3.1 -0.7
v 0.2 3.1 -0.7
v 0.7 3.1 -0.7
v 1.3 3.1 -0.7
v 1.8 3.1 -0.7
v 2 3.1 -0.7
v 0 3.1 -0.9
v 0.2 3.1 -0.9
v 0.7 3.1 -0.9
v 1.3 3.1 -0.9
v 1.8 3.1 -0.9
v 2 3.1 -0.9
v 0.7 3.3 -0.6
v 1.3 3.3 -0.6
v 0.9 3.3 -0.7
v 1.1 3.3 -0.7
v 0.9 3.3 -0.9
v 1.1 3.3 -0.9
v 0.7 3.3 -1
v 1.3 3.3 -1
v 0.5 3.5 -0.7
v 0.6 3.5 -0.7
v 1.4 3.5 -0.7
v 1.5 3.5 -0.7
v 0.5 3.5 -0.8
v 0.6 3.5 -0.8
v 1.4 3.5 -0.8
v 1.5 3.5 -0.8
v 0.6 3.6 -0.7
v 0.7 3.6 -0.7
v 1.3 3.6 -0.7
v 1.4 3.6 -0.7
v 0.6 3.6 -0.8
v 0.7 3.6 -0.8
v 1.3 3.6 -0.8
v 1.4 3.6 -0.8
v 0.7 2.1 -0.6
v 0.9 2.1 -0.6
v 1.1 2.1 -0.6
v 1.3 2.1 -0.6
v 0.7 2.1 -0.7
v 0.9 2.1 -0.7
v 1.1 2.1 -0.7
v 1.3 2.1 -0.7
v 0.7 3.2 -0.6
v 0.9 3.2 -0.6
v 1.1 3.2 -0.6
v 1.3 3.2 -0.6
v 0 3.2 -0.7
v 0.2 3.2 -0.7
v 0.7 3.2 -0.7
v 0.9 3.2 -0.7
v 1.1 3.2 -0.7
v 1.3 3.2 -0.7
v 1.8 3.2 -0.7
v 2 3.2 -0.7
v 0 3.2 -0.9
v 0.2 3.2 -0.9
v 0.7 3.2 -0.9
v 0.9 3.2 -0.9
v 1.1 3.2 -0.9
v 1.3 3.2 -0.9
v 1.8 3.2 -0.9
v 2 3.2 -0.9
v 0.7 3.2 -1
v 1.3 3.2 -1
v 0.6 3.7 -0.7
v 0.7 3.7 -0.7
v 1.3 3.7 -0.7
v 1.4 3.7 -0.7
v 0.6 3.7 -0.8
v 0.7 3.7 -0.8
v 1.3 3.7 -0.8
v 1.4 3.7 -0.8
v 0.5 3.8 -0.7
v 0.6 3.8 -0.7
v 1.4 3.8 -0.7
v 1.5 3.8 -0.7
v 0.5 3.8 -0.8
v 0.6 3.8 -0.8
v 1.4 3.8 -0.8
v 1.5 3.8 -0.8
v 1.2 3.9 -0.6
v 1.3 3.9 -0.6
v 1.2 3.9 -1
v 1.3 3.9 -1
v 0.7 4 -0.6
v 1.2 4 -0.6
v 0.7 4 -1
v 1.2 4 -1

# faces
f 3/3/1 2/3/1 1/3/1
f 4/3/1 2/3/1 3/3/1
f 7/7/1 6/7/1 5/7/1
f 8/7/1 6/7/1 7/7/1
f 11/4/1 10/4/1 9/4/1
f 12/4/1 10/4/1 11/4/1
f 13/4/1 10/4/1 12/4/1
f 14/6/1 13/6/1 12/6/1
f 15/6/1 13/6/1 14/6/1
f 17/3/1 15/3/1 14/3/1
f 18/3/1 15/3/1 17/3/1
f 20/5/1 18/5/1 17/5/1
f 20/5/1 19/5/1 18/5/1
f 20/5/1 17/5/1 16/5/1
f 21/5/1 19/5/1 20/5/1
f 22/8/1 21/8/1 20/8/1
f 23/8/1 21/8/1 22/8/1
f 24/8/1 22/8/1 20/8/1
f 25/8/1 22/8/1 24/8/1
f 26/8/1 21/8/1 23/8/1
f 27/8/1 21/8/1 26/8/1
f 30/3/1 29/3/1 28/3/1
f 31/3/1 29/3/1 30/3/1
f 32/3/1 30/3/1 28/3/1
f 33/3/1 29/3/1 31/3/1
f 34/3/1 32/3/1 28/3/1
f 34/3/1 33/3/1 32/3/1
f 35/3/1 29/3/1 33/3/1
f 35/3/1 33/3/1 34/3/1
f 36/9/1 35/9/1 34/9/1
f 37/9/1 35/9/1 36/9/1
f 40/3/1 39/3/1 38/3/1
f 41/3/1 39/3/1 40/3/1
f 44/4/1 43/4/1 42/4/1
f 45/4/1 43/4/1 44/4/1
f 46/4/1 43/4/1 45/4/1
f 47/6/1 46/6/1 45/6/1
f 48/6/1 46/6/1 47/6/1
f 50/3/1 48/3/1 47/3/1
f 51/3/1 48/3/1 50/3/1
f 53/5/1 51/5/1 50/5/1
f 53/5/1 52/5/1 51/5/1
f 53/5/1 50/5/1 49/5/1
f 54/5/1 52/5/1 53/5/1
f 55/5/1 52/5/1 54/5/1
f 58/7/1 57/7/1 56/7/1
f 59/7/1 57/7/1 58/7/1
f 62/7/1 61/7/1 60/7/1
f 63/7/1 61/7/1 62/7/1
f 64/7/2 65/7/2 66/7/2
f 66/7/2 65/7/2 67/7/2
f 68/7/2 69/7/2 70/7/2
f 70/7/2 69/7/2 71/7/2
f 72/4/2 73/4/2 74/4/2
f 74/4/2 73/4/2 75/4/2
f 75/4/2 73/4/2 76/4/2
f 75/6/2 76/6/2 77/6/2
f 77/6/2 76/6/2 78/6/2
f 77/3/2 78/3/2 80/3/2
f 80/3/2 78/3/2 81/3/2
f 80/5/2 81/5/2 83/5/2
f 81/5/2 82/5/2 83/5/2
f 79/5/2 80/5/2 83/5/2
f 83/5/2 82/5/2 84/5/2
f 84/5/2 82/5/2 85/5/2
f 86/3/2 87/3/2 88/3/2
f 88/3/2 87/3/2 89/3/2
f 90/9/2 91/9/2 92/9/2
f 92/9/2 91/9/2 93/9/2
f 94/4/2 95/4/2 96/4/2
f 96/4/2 95/4/2 97/4/2
f 97/4/2 95/4/2 98/4/2
f 97/6/2 98/6/2 99/6/2
f 99/6/2 98/6/2 100/6/2
f 99/3/2 100/3/2 102/3/2
f 102/3/2 100/3/2 103/3/2
f 102/5/2 103/5/2 105/5/2
f 103/5/2 104/5/2 105/5/2
f 101/5/2 102/5/2 105/5/2
f 105/5/2 104/5/2 106/5/2
f 105/8/2 106/8/2 107/8/2
f 107/8/2 106/8/2 108/8/2
f 105/8/2 107/8/2 109/8/2
f 109/8/2 107/8/2 110/8/2
f 108/8/2 106/8/2 111/8/2
f 111/8/2 106/8/2 112/8/2
f 113/3/2 114/3/2 115/3/2
f 115/3/2 114/3/2 116/3/2
f 113/3/2 115/3/2 117/3/2
f 116/3/2 114/3/2 118/3/2
f 113/3/2 117/3/2 119/3/2
f 117/3/2 118/3/2 119/3/2
f 118/3/2 114/3/2 120/3/2
f 119/3/2 118/3/2 120/3/2
f 119/9/2 120/9/2 121/9/2
f 121/9/2 120/9/2 122/9/2
f 123/7/2 124/7/2 125/7/2
f 125/7/2 124/7/2 126/7/2
f 127/3/2 128/3/2 129/3/2
f 129/3/2 128/3/2 130/3/2
f 139/3/3 137/3/3 136/3/3
f 140/9/3 138/9/3 137/9/3
f 140/3/3 137/3/3 139/3/3
f 141/4/3 132/4/3 131/4/3
f 142/4/3 132/4/3 141/4/3
f 143/5/3 134/5/3 133/5/3
f 144/8/3 135/8/3 134/8/3
f 144/5/3 134/5/3 143/5/3
f 145/8/3 135/8/3 144/8/3
f 146/8/3 135/8/3 145/8/3
f 147/8/3 135/8/3 146/8/3
f 148/8/3 135/8/3 147/8/3
f 149/8/3 135/8/3 148/8/3
f 150/3/3 139/3/3 136/3/3
f 151/3/3 139/3/3 150/3/3
f 152/10/3 140/10/3 139/10/3
f 152/3/3 139/3/3 151/3/3
f 153/9/3 138/9/3 140/9/3
f 153/10/3 140/10/3 152/10/3
f 157/1/3 145/1/3 144/1/3
f 158/10/3 146/10/3 145/10/3
f 158/1/3 145/1/3 157/1/3
f 159/1/3 147/1/3 146/1/3
f 159/10/3 146/10/3 158/10/3
f 160/10/3 148/10/3 147/10/3
f 160/1/3 147/1/3 159/1/3
f 161/1/3 149/1/3 148/1/3
f 161/10/3 148/10/3 160/10/3
f 162/1/3 149/1/3 161/1/3
f 163/10/3 151/10/3 150/10/3
f 163/3/3 150/3/3 136/3/3
f 164/3/3 152/3/3 151/3/3
f 164/10/3 151/10/3 163/10/3
f 164/3/3 153/3/3 152/3/3
f 165/3/3 153/3/3 164/3/3
f 166/9/3 138/9/3 153/9/3
f 166/3/3 153/3/3 165/3/3
f 167/3/3 165/3/3 164/3/3
f 167/3/3 164/3/3 163/3/3
f 167/10/3 166/10/3 165/10/3
f 168/9/3 138/9/3 166/9/3
f 168/10/3 166/10/3 167/10/3
f 169/9/3 138/9/3 168/9/3
f 170/9/3 138/9/3 169/9/3
f 171/4/3 155/4/3 154/4/3
f 172/4/3 155/4/3 171/4/3
f 173/5/3 157/5/3 156/5/3
f 174/8/3 160/8/3 159/8/3
f 174/5/3 157/5/3 173/5/3
f 174/8/3 162/8/3 161/8/3
f 174/8/3 158/8/3 157/8/3
f 174/8/3 159/8/3 158/8/3
f 174/8/3 161/8/3 160/8/3
f 175/8/3 162/8/3 174/8/3
f 176/3/3 163/3/3 136/3/3
f 176/3/3 167/3/3 163/3/3
f 176/3/3 168/3/3 167/3/3
f 177/9/3 169/9/3 168/9/3
f 177/3/3 168/3/3 176/3/3
f 178/9/3 169/9/3 177/9/3
f 181/3/3 180/3/3 179/3/3
f 182/3/3 180/3/3 181/3/3
f 185/7/3 184/7/3 183/7/3
f 186/7/3 184/7/3 185/7/3
f 187/7/3 184/7/3 186/7/3
f 188/7/3 184/7/3 187/7/3
f 192/8/3 182/8/3 181/8/3
f 193/8/3 182/8/3 192/8/3
f 194/7/3 187/7/3 186/7/3
f 195/7/3 187/7/3 194/7/3
f 196/6/3 190/6/3 189/6/3
f 197/3/3 191/3/3 190/3/3
f 197/6/3 190/6/3 196/6/3
f 198/3/3 191/3/3 197/3/3
f 204/3/3 200/3/3 199/3/3
f 205/3/3 200/3/3 204/3/3
f 206/6/3 202/6/3 201/6/3
f 207/3/3 203/3/3 202/3/3
f 207/6/3 202/6/3 206/6/3
f 208/3/3 203/3/3 207/3/3
f 214/7/3 212/7/3 211/7/3
f 215/7/3 212/7/3 214/7/3
f 217/7/3 215/7/3 214/7/3
f 217/7/3 216/7/3 215/7/3
f 217/7/3 214/7/3 213/7/3
f 218/7/3 216/7/3 217/7/3
f 219/8/3 210/8/3 209/8/3
f 220/8/3 210/8/3 219/8/3
f 221/3/3 220/3/3 219/3/3
f 222/3/3 220/3/3 221/3/3
f 223/7/4 224/7/4 225/7/4
f 225/7/4 224/7/4 226/7/4
f 226/7/4 224/7/4 227/7/4
f 227/7/4 224/7/4 228/7/4
f 226/7/4 227/7/4 229/7/4
f 229/7/4 227/7/4 230/7/4
f 231/7/4 232/7/4 234/7/4
f 234/7/4 232/7/4 235/7/4
f 234/7/4 235/7/4 237/7/4
f 235/7/4 236/7/4 237/7/4
f 233/7/4 234/7/4 237/7/4
f 237/7/4 236/7/4 238/7/4
f 239/3/4 240/3/4 241/3/4
f 241/3/4 240/3/4 242/3/4
f 241/8/4 242/8/4 247/8/4
f 247/8/4 242/8/4 248/8/4
f 243/4/4 244/4/4 249/4/4
f 244/6/4 245/6/4 250/6/4
f 249/4/4 244/4/4 250/4/4
f 245/3/4 246/3/4 251/3/4
f 250/6/4 245/6/4 251/6/4
f 251/3/4 246/3/4 252/3/4
f 253/3/4 254/3/4 259/3/4
f 259/3/4 254/3/4 260/3/4
f 255/4/4 256/4/4 261/4/4
f 256/6/4 257/6/4 262/6/4
f 261/4/4 256/4/4 262/4/4
f 257/3/4 258/3/4 263/3/4
f 262/6/4 257/6/4 263/6/4
f 263/3/4 258/3/4 264/3/4
f 265/8/4 266/8/4 267/8/4
f 267/8/4 266/8/4 268/8/4
f 267/3/4 268/3/4 269/3/4
f 269/3/4 268/3/4 270/3/4
f 271/5/4 272/5/4 277/5/4
f 272/8/4 273/8/4 278/8/4
f 277/5/4 272/5/4 278/5/4
f 278/8/4 273/8/4 280/8/4
f 275/9/4 276/9/4 281/9/4
f 281/9/4 276/9/4 282/9/4
f 279/5/4 280/5/4 283/5/4
f 280/8/4 273/8/4 284/8/4
f 283/5/4 280/5/4 284/5/4
f 284/8/4 273/8/4 285/8/4
f 274/3/4 275/3/4 286/3/4
f 275/9/4 281/9/4 287/9/4
f 286/3/4 275/3/4 287/3/4
f 287/9/4 281/9/4 288/9/4
f 293/4/5 290/4/5 289/4/5
f 294/4/5 290/4/5 293/4/5
f 295/4/5 292/4/5 291/4/5
f 296/4/5 292/4/5 295/4/5
f 301/5/5 298/5/5 297/5/5
f 302/5/5 298/5/5 301/5/5
f 303/5/5 300/5/5 299/5/5
f 304/5/5 300/5/5 303/5/5
f 309/5/5 306/5/5 305/5/5
f 310/5/5 306/5/5 309/5/5
f 311/5/5 308/5/5 307/5/5
f 312/5/5 308/5/5 311/5/5
f 315/1/5 314/1/5 313/1/5
f 316/1/5 314/1/5 315/1/5
f 317/8/5 316/8/5 315/8/5
f 318/8/5 316/8/5 317/8/5
f 325/3/5 320/3/5 319/3/5
f 326/8/5 321/8/5 320/8/5
f 326/3/5 320/3/5 325/3/5
f 327/8/5 321/8/5 326/8/5
f 328/8/5 323/8/5 322/8/5
f 329/3/5 324/3/5 323/3/5
f 329/8/5 323/8/5 328/8/5
f 330/3/5 324/3/5 329/3/5
f 333/3/5 332/3/5 331/3/5
f 334/3/5 332/3/5 333/3/5
f 335/3/5 333/3/5 331/3/5
f 336/3/5 332/3/5 334/3/5
f 337/3/5 335/3/5 331/3/5
f 337/3/5 336/3/5 335/3/5
f 338/3/5 332/3/5 336/3/5
f 338/3/5 336/3/5 337/3/5
f 343/7/5 340/7/5 339/7/5
f 344/7/5 340/7/5 343/7/5
f 345/7/5 342/7/5 341/7/5
f 346/7/5 342/7/5 345/7/5
f 351/7/5 348/7/5 347/7/5
f 352/7/5 348/7/5 351/7/5
f 353/7/5 350/7/5 349/7/5
f 354/7/5 350/7/5 353/7/5
f 355/4/6 356/4/6 359/4/6
f 359/4/6 356/4/6 360/4/6
f 357/4/6 358/4/6 361/4/6
f 361/4/6 358/4/6 362/4/6
f 363/8/6 364/8/6 369/8/6
f 364/1/6 365/1/6 370/1/6
f 369/8/6 364/8/6 370/8/6
f 365/8/6 366/8/6 371/8/6
f 370/1/6 365/1/6 371/1/6
f 371/8/6 366/8/6 372/8/6
f 367/3/6 368/3/6 375/3/6
f 368/8/6 369/8/6 376/8/6
f 375/3/6 368/3/6 376/3/6
f 369/8/6 370/8/6 376/8/6
f 376/8/6 370/8/6 377/8/6
f 377/8/6 370/8/6 378/8/6
f 371/8/6 372/8/6 379/8/6
f 372/8/6 373/8/6 379/8/6
f 379/8/6 373/8/6 380/8/6
f 373/3/6 374/3/6 381/3/6
f 380/8/6 373/8/6 381/8/6
f 381/3/6 374/3/6 382/3/6
f 379/8/6 380/8/6 383/8/6
f 377/8/6 378/8/6 383/8/6
f 378/8/6 379/8/6 383/8/6
f 383/8/6 380/8/6 384/8/6
f 385/7/6 386/7/6 389/7/6
f 389/7/6 386/7/6 390/7/6
f 387/7/6 388/7/6 391/7/6
f 391/7/6 388/7/6 392/7/6
f 393/7/6 394/7/6 397/7/6
f 397/7/6 394/7/6 398/7/6
f 395/7/6 396/7/6 399/7/6
f 399/7/6 396/7/6 400/7/6
f 401/9/6 402/9/6 403/9/6
f 403/9/6 402/9/6 404/9/6
f 405/9/6 406/9/6 407/9/6
f 407/9/6 406/9/6 408/9/6
